<svg xmlns="http://www.w3.org/2000/svg" width="512" height="512" viewBox="0 0 512 512" fill="none">
  <title>Winnie — white silhouette</title>
  <path fill="#fff" fill-rule="evenodd" d="M102 174C69 167 58 143 63 109C68 70 94 43 127 43C160 43 180 70 180 103C206 94 231 91 257 93C287 94 312 99 337 111C341 85 358 69 381 72C412 76 434 103 443 133C452 163 445 187 423 196C449 235 464 282 462 328C459 414 384 463 258 464C132 465 56 418 52 333C49 277 67 220 102 174ZM187 214C170 212 157 230 155 252C152 274 162 292 179 294C196 296 209 278 211 256C214 234 204 216 187 214ZM326 225C309 223 296 240 294 261C291 282 301 300 317 302C334 304 347 287 349 266C352 245 342 227 326 225ZM256 294C222 291 198 307 197 329C195 351 222 366 254 369C289 372 316 360 317 340C319 317 291 297 256 294ZM222 397C239 412 261 416 281 405C286 402 287 396 283 393C280 390 277 390 273 392C258 399 244 396 232 386C228 383 223 384 221 388C219 391 219 394 222 397Z" clip-rule="evenodd"/>
</svg>
